<svg xmlns="http://www.w3.org/2000/svg" width="256" height="256"><defs><clipPath clipPathUnits="userSpaceOnUse" id="a"><path d="M-29.377 351.44h326.193v326.192H-29.377z"/></clipPath><linearGradient x1="187.5" y1="718.77" x2="132.271" y2="512.652" gradientUnits="userSpaceOnUse" spreadMethod="pad" id="b"><stop offset="0" stop-color="#fff"/><stop offset="1" stop-opacity="0" stop-color="#fff"/></linearGradient></defs><g transform="matrix(1.33333 0 0 1.33333 -165.718 -504.534)"><rect ry=".141" rx=".155" y="378.401" x="124.289" height="192" width="192" opacity=".034" fill="none" paint-order="fill markers stroke"/><path d="M267.225 393.39l-76.473.002c-13.945 0-25.348 11.407-25.348 25.35v57.94h18.59v-.003h56.474v-12.72c0-1.415-1.14-2.559-2.559-2.559h-43.5c-6.438 0-10.4-3.857-10.415-8.837v-29.372h-5.162v-16.567h16.565v5.5h61.223l10.605-18.733zm-85.49 16.14v10.758h10.758V409.53h-10.757zm19.574 17.873v14.407c0 2.46 1.853 4.325 4.583 4.325h43.698c3.804 0 7.04 3.097 7.04 7.04v28.434h6.623v7.232l10.71 4.336a25.155 25.155 0 0 0 1.256-7.845v-32.577c0-13.944-11.406-25.352-25.348-25.352H201.31zm-35.905 56.716v1.213c0 13.941 11.403 25.349 25.348 25.349h59.12c3.31 0 6.475-.65 9.382-1.815l-4.328-10.69h-8.24v-6.086h-55.653c-3.802 0-7.039-3.24-7.039-7.041v-.93h-18.59zm84.186.395v10.757h7.671l15.068 37.21 8.802-17.145 17.143-8.8-37.928-15.357v-6.665H249.59zm-39.788 55.584l-1.753.003a3.793 3.793 0 0 0-3.78 3.777v1.7c0 .719.66 1.117 1.166 1.117h6.41v.762c0 .973-.749 1.721-1.72 1.721h-3.798v-.741h-2.058v2.8h5.855a3.794 3.794 0 0 0 3.78-3.78v-1.698a1.124 1.124 0 0 0-.03-.256 1.08 1.08 0 0 0-.362-.576 1.346 1.346 0 0 0-.378-.215 1.236 1.236 0 0 0-.397-.075h-6.41v-.76c0-.972.75-1.721 1.722-1.721h2.115c.779 0 1.414.484 1.637 1.173h2.102c-.267-1.818-1.85-3.231-3.74-3.231h-.361zm-45.961.003a3.791 3.791 0 0 0-3.78 3.777v3.579c0 2.076 1.702 3.78 3.78 3.78h2.231c.62 0 1.203-.155 1.721-.423v.818c0 .972-.748 1.72-1.721 1.72h-3.133v2.058h3.133a3.793 3.793 0 0 0 3.78-3.778v-7.754c0-.565.256-1.056.66-1.366v-2.26a3.809 3.809 0 0 0-1.69 1.048 3.77 3.77 0 0 0-2.75-1.2h-2.231zm8.432 0v2.058h2.055V540.1h-2.055zm7.65 0a3.791 3.791 0 0 0-3.777 3.777v7.358h2.056v-7.358c0-.972.751-1.72 1.722-1.72h1.117c.973 0 1.721.748 1.721 1.72v7.358h2.058v-7.358c0-.972.752-1.72 1.722-1.72h1.117c.972 0 1.722.748 1.722 1.72v7.358h2.058v-7.358a3.793 3.793 0 0 0-3.78-3.777h-1.117a3.77 3.77 0 0 0-2.751 1.2 3.764 3.764 0 0 0-2.75-1.2h-1.117zm17.004 0a3.793 3.793 0 0 0-3.779 3.777v11.532h2.055v-4.596a3.744 3.744 0 0 0 1.724.422h2.231a3.795 3.795 0 0 0 3.781-3.779v-3.579a3.794 3.794 0 0 0-3.78-3.777h-2.232zm22.194 0a3.793 3.793 0 0 0-3.779 3.777v3.579a3.794 3.794 0 0 0 3.78 3.78h3.02c1.89 0 3.469-1.412 3.737-3.232h-2.102a1.687 1.687 0 0 1-1.635 1.173h-3.02c-.973 0-1.72-.748-1.72-1.721v-3.579c0-.972.747-1.72 1.72-1.72h3.02c.778 0 1.414.481 1.635 1.173h2.102a3.793 3.793 0 0 0-3.737-3.23h-3.02zm10.278 0v2.055h5.272c.972 0 1.72.75 1.72 1.722v.222a3.726 3.726 0 0 0-1.72-.422h-3.579a3.795 3.795 0 0 0-3.78 3.779 3.794 3.794 0 0 0 3.78 3.78h3.579a3.794 3.794 0 0 0 3.779-3.78v-3.579a3.791 3.791 0 0 0-3.78-3.777H229.4zm14.512 0a3.793 3.793 0 0 0-3.78 3.777v11.532h2.059v-4.596a3.724 3.724 0 0 0 1.72.422h2.232a3.794 3.794 0 0 0 3.78-3.779v-3.579a3.793 3.793 0 0 0-3.78-3.777h-2.231zm11.513 0a3.793 3.793 0 0 0-3.779 3.777v3.579a3.794 3.794 0 0 0 3.78 3.78h5.271v-2.059h-5.272a1.694 1.694 0 0 1-1.72-1.721v-.22c.518.268 1.103.42 1.72.42h3.58a3.794 3.794 0 0 0 3.78-3.779 3.792 3.792 0 0 0-3.78-3.777h-3.58zm11.574 0v11.135h2.055v-11.135h-2.055zm4.757 0v11.135h4.982a3.794 3.794 0 0 0 3.779-3.779v-3.579a3.793 3.793 0 0 0-3.78-3.777h-4.981zm-107.914 2.058h2.231c.973 0 1.721.747 1.721 1.72v3.578c0 .973-.748 1.721-1.721 1.721h-2.231a1.696 1.696 0 0 1-1.724-1.721v-3.579c0-.972.751-1.72 1.724-1.72zm33.086 0h2.231c.973 0 1.722.747 1.722 1.72v3.578c0 .973-.749 1.721-1.722 1.721h-2.23a1.694 1.694 0 0 1-1.722-1.721v-3.579c0-.972.75-1.72 1.721-1.72zm46.984 0h2.23c.973 0 1.722.747 1.722 1.72v3.578c0 .973-.749 1.721-1.721 1.721h-2.231a1.694 1.694 0 0 1-1.721-1.721v-3.579c0-.972.748-1.72 1.72-1.72zm11.513 0h3.58c.971 0 1.722.747 1.722 1.72 0 .971-.75 1.72-1.723 1.72h-3.579c-.969 0-1.72-.749-1.72-1.72 0-.973.751-1.72 1.72-1.72zm18.389 0h2.924c.971 0 1.72.747 1.72 1.72v3.578c0 .973-.749 1.721-1.72 1.721h-2.924v-7.02zm-101.54 1.19v7.887h2.055v-7.888h-2.055zm58.819 2.387h3.579c.972 0 1.72.75 1.72 1.721 0 .973-.748 1.721-1.72 1.721h-3.579a1.694 1.694 0 0 1-1.721-1.721c0-.972.749-1.721 1.721-1.721z" fill="#4d4d4d"/></g></svg>