<?xml version="1.0" encoding="UTF-8" standalone="no"?>
<!-- Created with Inkscape (http://www.inkscape.org/) -->

<svg
   xmlns:dc="http://purl.org/dc/elements/1.1/"
   xmlns:cc="http://creativecommons.org/ns#"
   xmlns:rdf="http://www.w3.org/1999/02/22-rdf-syntax-ns#"
   xmlns:svg="http://www.w3.org/2000/svg"
   xmlns="http://www.w3.org/2000/svg"
   xmlns:sodipodi="http://sodipodi.sourceforge.net/DTD/sodipodi-0.dtd"
   xmlns:inkscape="http://www.inkscape.org/namespaces/inkscape"
   width="127.48209mm"
   height="97.682007mm"
   viewBox="0 0 127.48209 97.682004"
   version="1.1"
   id="svg2589"
   inkscape:version="0.92.4 (5da689c313, 2019-01-14)"
   sodipodi:docname="GresikdevLogo.svg"
   inkscape:export-filename="/home/sherlock/git/GNOME/gnome.asia-summit-2019/logo/GresikdevLogo.png"
   inkscape:export-xdpi="95.950119"
   inkscape:export-ydpi="95.950119">
  <defs
     id="defs2583" />
  <sodipodi:namedview
     id="base"
     pagecolor="#ffffff"
     bordercolor="#666666"
     borderopacity="1.0"
     inkscape:pageopacity="0.0"
     inkscape:pageshadow="2"
     inkscape:zoom="1.1719764"
     inkscape:cx="141.23711"
     inkscape:cy="211.96036"
     inkscape:document-units="mm"
     inkscape:current-layer="layer1"
     showgrid="false"
     inkscape:window-width="2560"
     inkscape:window-height="1392"
     inkscape:window-x="0"
     inkscape:window-y="40"
     inkscape:window-maximized="1"
     inkscape:measure-start="0,0"
     inkscape:measure-end="0,0" />
  <metadata
     id="metadata2586">
    <rdf:RDF>
      <cc:Work
         rdf:about="">
        <dc:format>image/svg+xml</dc:format>
        <dc:type
           rdf:resource="http://purl.org/dc/dcmitype/StillImage" />
        <dc:title />
      </cc:Work>
    </rdf:RDF>
  </metadata>
  <g
     inkscape:label="Layer 1"
     inkscape:groupmode="layer"
     id="layer1"
     transform="translate(-41.5499,-56.41304)">
    <rect
       style="opacity:1;vector-effect:none;fill:none;fill-opacity:1;fill-rule:evenodd;stroke:none;stroke-width:1.5;stroke-linecap:round;stroke-linejoin:round;stroke-miterlimit:4;stroke-dasharray:none;stroke-dashoffset:0;stroke-opacity:1;paint-order:markers stroke fill"
       id="rect71"
       width="127.48209"
       height="97.682007"
       x="41.5499"
       y="56.41304"
       rx="0"
       ry="0" />
    <g
       id="g69"
       transform="translate(-2.303217,-4.4077754)">
      <g
         id="text3208"
         style="font-style:normal;font-weight:normal;font-size:21.26288414px;line-height:1.25;font-family:sans-serif;letter-spacing:0px;word-spacing:0px;fill:#000000;fill-opacity:1;stroke:none;stroke-width:0.53157216"
         aria-label="&lt;GresikDev/&gt;">
        <path
           id="path28"
           style="font-style:normal;font-variant:normal;font-weight:normal;font-stretch:normal;font-family:'Concert One';-inkscape-font-specification:'Concert One';fill:#000000;fill-opacity:1;stroke-width:0.53157216"
           d="m 51.374203,139.87211 q -0.103823,-0.10382 -0.218027,-0.21803 -0.103823,-0.1142 -0.197264,-0.24917 -0.09344,-0.13497 -0.155734,-0.28032 -0.05191,-0.14535 -0.05191,-0.31147 0,-0.30109 0.186881,-0.53988 0.186881,-0.24917 0.45682,-0.51911 L 54.655,134.51486 q 0.238792,-0.23879 0.487966,-0.42567 0.259557,-0.19726 0.571025,-0.19726 0.207645,0 0.425673,0.1142 0.218028,0.1142 0.467202,0.36338 0.238792,0.23879 0.332233,0.44644 0.103822,0.19726 0.103822,0.40491 0,0.31146 -0.186881,0.5814 -0.176498,0.25956 -0.41529,0.49835 l -2.554038,2.53327 2.533273,2.49175 q 0.249175,0.24917 0.436055,0.50873 0.186881,0.24917 0.186881,0.55026 0,0.20765 -0.103822,0.42567 -0.103823,0.21803 -0.373762,0.48797 -0.238792,0.23879 -0.446438,0.34261 -0.197263,0.0934 -0.404908,0.0934 -0.301086,0 -0.571025,-0.18688 -0.259556,-0.18688 -0.508731,-0.43605 z"
           inkscape:connector-curvature="0" />
        <path
           id="path30"
           style="font-style:normal;font-variant:normal;font-weight:normal;font-stretch:normal;font-family:'Concert One';-inkscape-font-specification:'Concert One';fill:#000000;fill-opacity:1;stroke-width:0.53157216"
           d="m 69.85464,144.08731 q 0,0.13497 -0.03115,0.31147 -0.02076,0.1765 -0.13497,0.34261 -0.103822,0.15574 -0.311468,0.26994 -0.207645,0.11421 -0.560642,0.11421 -0.394526,0 -0.622936,-0.10382 -0.22841,-0.11421 -0.352997,-0.26994 -0.114205,-0.16612 -0.155734,-0.34262 -0.03115,-0.1765 -0.03115,-0.32185 v -0.62293 q -0.498349,0.73714 -1.277019,1.20434 -0.768288,0.45682 -1.899955,0.45682 -0.197263,0 -0.612554,-0.0311 -0.41529,-0.0311 -0.934404,-0.16611 -0.519113,-0.13497 -1.069373,-0.40491 -0.550261,-0.26994 -1.00708,-0.74753 -0.446438,-0.48796 -0.737141,-1.20434 -0.290704,-0.72676 -0.290704,-1.76498 v -5.81407 q 0,-0.85135 0.207645,-1.50543 0.207646,-0.65409 0.539878,-1.13167 0.342615,-0.48797 0.77867,-0.80982 0.436056,-0.33223 0.892875,-0.55026 1.058992,-0.49835 2.419069,-0.57102 1.152432,0 1.972631,0.25955 0.820199,0.25956 1.391224,0.67485 0.571024,0.41529 0.913639,0.94479 0.342615,0.51911 0.529496,1.05899 0.186881,0.53988 0.238792,1.03823 0.06229,0.49834 0.06229,0.86172 0,0.15574 -0.03115,0.38415 -0.02077,0.21803 -0.176499,0.42567 -0.155734,0.19726 -0.498349,0.34262 -0.332232,0.13497 -0.955168,0.13497 -0.218028,0 -0.539878,-0.0208 -0.311468,-0.0311 -0.602172,-0.13497 -0.290703,-0.10382 -0.498349,-0.30108 -0.207645,-0.20765 -0.207645,-0.56065 0,-0.56064 -0.07268,-0.99669 -0.06229,-0.44644 -0.238792,-0.75791 -0.176499,-0.31147 -0.487967,-0.4672 -0.311468,-0.16612 -0.799434,-0.16612 -0.508731,0 -0.789053,0.20765 -0.269938,0.20764 -0.394526,0.45682 -0.145351,0.2907 -0.166116,0.66446 v 6.64465 q 0,0.33224 0.114205,0.62294 0.124587,0.2907 0.342615,0.50873 0.218027,0.21803 0.508731,0.34262 0.301086,0.12458 0.654083,0.12458 0.415291,0 0.747523,-0.1765 0.342615,-0.18688 0.612554,-0.48796 0.269939,-0.31147 0.477584,-0.69561 0.218028,-0.39453 0.384144,-0.8202 h -0.996698 q -0.301085,-0.0311 -0.529495,-0.15574 -0.207646,-0.10382 -0.373762,-0.31147 -0.155734,-0.20764 -0.155734,-0.57102 0,-0.39453 0.155734,-0.60217 0.166116,-0.21803 0.373762,-0.32185 0.22841,-0.11421 0.529495,-0.13497 h 2.69939 q 0.07268,0 0.22841,0.0311 0.166116,0.0208 0.332232,0.14535 0.176499,0.12458 0.301086,0.37376 0.13497,0.23879 0.13497,0.67485 z"
           inkscape:connector-curvature="0" />
        <path
           id="path32"
           style="font-style:normal;font-variant:normal;font-weight:normal;font-stretch:normal;font-family:'Concert One';-inkscape-font-specification:'Concert One';fill:#000000;fill-opacity:1;stroke-width:0.53157216"
           d="m 78.721096,136.21755 q 0,0.80982 -0.404909,1.18358 -0.394526,0.37376 -1.131667,0.37376 -0.103823,0 -0.301086,0.0208 -0.186881,0.0104 -0.404908,0.0831 -0.218028,0.0623 -0.446438,0.19726 -0.218027,0.12459 -0.404908,0.353 -0.186881,0.21802 -0.301086,0.56064 -0.114205,0.34261 -0.114205,0.8202 v 2.96933 q 0,0.42567 -0.05191,0.83058 -0.04153,0.40491 -0.207646,0.72676 -0.166116,0.31146 -0.477584,0.50873 -0.311468,0.19726 -0.840964,0.19726 -0.519113,0 -0.820199,-0.19726 -0.301086,-0.19727 -0.467202,-0.50873 -0.155734,-0.32185 -0.207645,-0.72676 -0.04153,-0.40491 -0.04153,-0.83058 v -5.81407 q 0,-0.43606 0.04153,-0.84097 0.05191,-0.41529 0.207645,-0.73714 0.166116,-0.32185 0.467202,-0.50873 0.301086,-0.19726 0.820199,-0.19726 0.529496,0 0.809817,0.23879 0.290704,0.22841 0.425673,0.60217 0.13497,0.36338 0.155734,0.8202 0.02076,0.44644 0.02076,0.87211 h 0.166116 q 0.145352,-0.58141 0.384144,-1.04861 0.238792,-0.47758 0.529496,-0.79943 0.290703,-0.33224 0.622936,-0.50873 0.332232,-0.1765 0.664465,-0.1765 0.404908,0 0.654083,0.0934 0.259556,0.0831 0.404908,0.26994 0.145352,0.18688 0.197263,0.47758 0.05191,0.2907 0.05191,0.69561 z"
           inkscape:connector-curvature="0" />
        <path
           id="path34"
           style="font-style:normal;font-variant:normal;font-weight:normal;font-stretch:normal;font-family:'Concert One';-inkscape-font-specification:'Concert One';fill:#000000;fill-opacity:1;stroke-width:0.53157216"
           d="m 88.667309,139.12459 q 0,0.16611 -0.02076,0.39452 -0.02076,0.21803 -0.166117,0.42568 -0.134969,0.19726 -0.436055,0.34261 -0.301086,0.14535 -0.851346,0.14535 h -4.132142 v 0.9967 q 0,0.24918 0.06229,0.51911 0.06229,0.26994 0.207646,0.49835 0.155734,0.22841 0.404908,0.37377 0.249175,0.14535 0.612554,0.14535 0.415291,0 0.633318,-0.0934 0.22841,-0.10383 0.352997,-0.24918 0.13497,-0.14535 0.238793,-0.31147 0.103822,-0.16611 0.269938,-0.31146 0.176499,-0.14536 0.477585,-0.2388 0.311468,-0.10382 0.851346,-0.10382 0.259556,0 0.498349,0.0415 0.249174,0.0415 0.436055,0.15573 0.186881,0.11421 0.301086,0.32185 0.114205,0.19727 0.114205,0.51912 0,0.67485 -0.425673,1.13167 -0.425673,0.44643 -1.069374,0.71637 -0.643701,0.26994 -1.401606,0.38415 -0.747523,0.1142 -1.401606,0.1142 -0.861728,-0.0104 -1.640399,-0.21803 -0.77867,-0.20764 -1.380841,-0.66446 -0.591789,-0.45682 -0.944787,-1.19396 -0.352997,-0.73714 -0.352997,-1.80652 v -2.42945 q 0,-0.98631 0.22841,-1.67154 0.238792,-0.68523 0.612554,-1.14205 0.373762,-0.45682 0.840964,-0.706 0.467202,-0.25955 0.944786,-0.38414 0.477584,-0.12459 0.903257,-0.15573 0.436056,-0.0311 0.747524,-0.0311 1.048609,0 1.78575,0.18688 0.747523,0.18688 1.245872,0.48797 0.498349,0.30108 0.789052,0.69561 0.290704,0.39452 0.436055,0.8202 0.145352,0.41529 0.186881,0.85134 0.04153,0.42568 0.04153,0.79944 z m -5.606424,-0.24918 h 2.595567 q 0,-0.48796 -0.03115,-0.86172 -0.02076,-0.38415 -0.155734,-0.64371 -0.124587,-0.25955 -0.404909,-0.39452 -0.269939,-0.13497 -0.77867,-0.13497 -0.425673,0 -0.674847,0.13497 -0.238792,0.13497 -0.363379,0.34261 -0.124588,0.19727 -0.155734,0.42568 -0.03115,0.22841 -0.03115,0.4049 z"
           inkscape:connector-curvature="0" />
        <path
           id="path36"
           style="font-style:normal;font-variant:normal;font-weight:normal;font-stretch:normal;font-family:'Concert One';-inkscape-font-specification:'Concert One';fill:#000000;fill-opacity:1;stroke-width:0.53157216"
           d="m 93.546976,137.38037 q 0,0.20764 0.13497,0.38414 0.134969,0.1765 0.363379,0.34262 0.238792,0.15573 0.539878,0.31146 0.311468,0.15574 0.643701,0.31147 0.508731,0.24918 1.038227,0.53988 0.529495,0.28032 0.96555,0.66446 0.436056,0.38415 0.705995,0.89288 0.280321,0.49835 0.280321,1.18358 0,0.62293 -0.186881,1.10052 -0.176499,0.47758 -0.477584,0.83058 -0.301086,0.34261 -0.705994,0.57102 -0.394527,0.22841 -0.840964,0.36338 -0.436055,0.13497 -0.892875,0.18689 -0.45682,0.0623 -0.861728,0.0623 -0.799435,0 -1.391224,-0.13497 -0.59179,-0.13497 -1.017463,-0.353 -0.425672,-0.22841 -0.705994,-0.50873 -0.269939,-0.2907 -0.425673,-0.60217 -0.155734,-0.31147 -0.218027,-0.61255 -0.06229,-0.31147 -0.06229,-0.57103 0,-0.62294 0.342615,-0.91364 0.352997,-0.2907 1.069373,-0.2907 0.519114,0 0.851346,0.28032 0.332233,0.28032 0.352998,0.90326 0.01038,0.20764 0.114204,0.33223 0.114205,0.12459 0.280322,0.20764 0.176498,0.0727 0.384144,0.10383 0.207645,0.0208 0.404908,0.0208 0.404908,0 0.654083,-0.20764 0.259557,-0.21803 0.259557,-0.56065 0,-0.2907 -0.176499,-0.53987 -0.166116,-0.25956 -0.446437,-0.47759 -0.280322,-0.21803 -0.643701,-0.41529 -0.352997,-0.20764 -0.726759,-0.41529 -0.467202,-0.24917 -0.944786,-0.5295 -0.467202,-0.28032 -0.851346,-0.62293 -0.384144,-0.34262 -0.622936,-0.76829 -0.238792,-0.43605 -0.238792,-0.98631 0,-0.80982 0.259556,-1.3497 0.269939,-0.55026 0.77867,-0.88249 0.508732,-0.34262 1.23549,-0.48797 0.737141,-0.14535 1.671545,-0.16612 h 0.166117 q 0.840963,0 1.42237,0.14536 0.59179,0.14535 0.975934,0.38414 0.394526,0.22841 0.612553,0.51911 0.22841,0.29071 0.332233,0.59179 0.114205,0.29071 0.134969,0.56065 0.03115,0.26993 0.03115,0.45682 0,0.31146 -0.134969,0.51911 -0.124588,0.19726 -0.342615,0.32185 -0.207646,0.1142 -0.477584,0.16612 -0.269939,0.0415 -0.560643,0.0519 -0.249174,0 -0.45682,-0.0831 -0.197263,-0.0831 -0.342615,-0.20765 -0.145351,-0.12458 -0.228409,-0.28032 -0.07268,-0.15573 -0.07268,-0.30108 -0.02076,-0.39453 -0.321851,-0.60218 -0.290703,-0.20764 -0.716376,-0.20764 -0.176499,0 -0.342615,0.0415 -0.155734,0.0312 -0.290703,0.12459 -0.124588,0.0831 -0.207646,0.22841 -0.07268,0.14535 -0.07268,0.37376 z"
           inkscape:connector-curvature="0" />
        <path
           id="path38"
           style="font-style:normal;font-variant:normal;font-weight:normal;font-stretch:normal;font-family:'Concert One';-inkscape-font-specification:'Concert One';fill:#000000;fill-opacity:1;stroke-width:0.53157216"
           d="m 100.58615,136.98584 q 0,-0.43605 0.0415,-0.85135 0.0519,-0.41529 0.21803,-0.73714 0.16612,-0.33223 0.47759,-0.52949 0.31146,-0.20765 0.84096,-0.20765 0.5295,0 0.84096,0.20765 0.31147,0.19726 0.47759,0.52949 0.16611,0.32185 0.20764,0.73714 0.0519,0.4153 0.0519,0.85135 v 5.73101 q 0,0.43606 -0.0519,0.86173 -0.0415,0.41529 -0.20764,0.74752 -0.16612,0.32185 -0.47759,0.51912 -0.31146,0.19726 -0.84096,0.19726 -0.5295,0 -0.84096,-0.19726 -0.31147,-0.19727 -0.47759,-0.51912 -0.16611,-0.33223 -0.21803,-0.74752 -0.0415,-0.42567 -0.0415,-0.86173 z m 3.17698,-4.90043 q 0,0.79944 -0.41529,1.19396 -0.41529,0.38415 -1.16282,0.38415 -0.74752,0 -1.16281,-0.38415 -0.41529,-0.39452 -0.41529,-1.19396 0,-0.83058 0.41529,-1.20434 0.41529,-0.37376 1.16281,-0.37376 0.79944,0 1.18358,0.37376 0.39453,0.37376 0.39453,1.20434 z"
           inkscape:connector-curvature="0" />
        <path
           id="path40"
           style="font-style:normal;font-variant:normal;font-weight:normal;font-stretch:normal;font-family:'Concert One';-inkscape-font-specification:'Concert One';fill:#000000;fill-opacity:1;stroke-width:0.53157216"
           d="m 107.04392,132.81217 q 0,-0.43606 0.0311,-0.85135 0.0311,-0.41529 0.1765,-0.73714 0.14535,-0.32185 0.43605,-0.51911 0.30109,-0.19726 0.83059,-0.19726 0.53987,0 0.83058,0.19726 0.30108,0.19726 0.43605,0.51911 0.14535,0.32185 0.1765,0.73714 0.0311,0.41529 0.0311,0.85135 v 4.09061 h 0.16611 l 2.13875,-2.51251 q 0.18688,-0.21802 0.43606,-0.31146 0.24917,-0.10383 0.51911,-0.10383 0.25956,0 0.51911,0.10383 0.26994,0.0934 0.46721,0.28032 0.20764,0.1765 0.33223,0.43605 0.13497,0.24918 0.13497,0.57103 0,0.41529 -0.29071,0.76828 l -1.8688,2.20105 2.03492,3.88296 q 0.18688,0.37377 0.32185,0.75791 0.13497,0.37376 0.13497,0.71638 0,0.33223 -0.14535,0.59178 -0.14535,0.25956 -0.38415,0.43606 -0.22841,0.16612 -0.51911,0.25956 -0.28032,0.0831 -0.55026,0.0831 -0.34261,0 -0.61255,-0.16612 -0.26994,-0.16612 -0.47759,-0.40491 -0.19726,-0.24917 -0.35299,-0.5295 -0.15574,-0.28032 -0.25956,-0.51911 l -1.16282,-2.47098 h -0.5814 v 1.74422 q 0,0.43606 -0.0311,0.86173 -0.0312,0.41529 -0.1765,0.74752 -0.13497,0.32185 -0.43605,0.51912 -0.29071,0.19726 -0.83058,0.19726 -0.5295,0 -0.83059,-0.19726 -0.2907,-0.19727 -0.43605,-0.51912 -0.14535,-0.33223 -0.1765,-0.74752 -0.0311,-0.42567 -0.0311,-0.86173 z"
           inkscape:connector-curvature="0" />
        <path
           id="path42"
           style="font-style:normal;font-variant:normal;font-weight:normal;font-stretch:normal;font-family:'Concert One';-inkscape-font-specification:'Concert One';fill:#000000;fill-opacity:1;stroke-width:0.53157216"
           d="m 121.99439,130.50731 q 0.94478,0 1.7546,0.23879 0.8202,0.23879 1.42237,0.71637 0.61256,0.46721 0.95517,1.1732 0.353,0.70599 0.353,1.65078 v 6.43701 q 0,0.80981 -0.1765,1.43275 -0.1765,0.61255 -0.4672,1.06937 -0.28032,0.44644 -0.6437,0.76829 -0.36338,0.31147 -0.73714,0.50873 -0.89288,0.47759 -2.02455,0.53988 h -3.44691 q -0.59179,0 -0.91364,-0.19726 -0.32185,-0.20765 -0.4672,-0.53988 -0.14535,-0.34262 -0.1765,-0.76829 -0.0208,-0.42567 -0.0208,-0.88249 v -9.7801 q 0,-0.44643 0.0208,-0.87211 0.0311,-0.42567 0.1765,-0.7579 0.14535,-0.33224 0.4672,-0.5295 0.32185,-0.20764 0.91364,-0.20764 z m -1.43275,2.42945 v 9.63474 h 1.34969 q 0.44644,-0.0208 0.79943,-0.20764 0.14536,-0.0727 0.29071,-0.19727 0.14535,-0.12458 0.25955,-0.2907 0.11421,-0.1765 0.1765,-0.41529 0.0727,-0.23879 0.0727,-0.55026 v -6.12554 q 0,-0.34261 -0.0727,-0.60217 -0.0623,-0.26994 -0.1765,-0.4672 -0.1142,-0.19727 -0.25955,-0.33224 -0.14535,-0.13497 -0.29071,-0.21802 -0.35299,-0.19727 -0.79943,-0.22841 z"
           inkscape:connector-curvature="0" />
        <path
           id="path44"
           style="font-style:normal;font-variant:normal;font-weight:normal;font-stretch:normal;font-family:'Concert One';-inkscape-font-specification:'Concert One';fill:#000000;fill-opacity:1;stroke-width:0.53157216"
           d="m 137.0902,139.12459 q 0,0.16611 -0.0208,0.39452 -0.0208,0.21803 -0.16612,0.42568 -0.13497,0.19726 -0.43605,0.34261 -0.30109,0.14535 -0.85135,0.14535 h -4.13214 v 0.9967 q 0,0.24918 0.0623,0.51911 0.0623,0.26994 0.20765,0.49835 0.15573,0.22841 0.40491,0.37377 0.24917,0.14535 0.61255,0.14535 0.41529,0 0.63332,-0.0934 0.22841,-0.10383 0.353,-0.24918 0.13497,-0.14535 0.23879,-0.31147 0.10382,-0.16611 0.26994,-0.31146 0.1765,-0.14536 0.47758,-0.2388 0.31147,-0.10382 0.85135,-0.10382 0.25955,0 0.49835,0.0415 0.24917,0.0415 0.43605,0.15573 0.18688,0.11421 0.30109,0.32185 0.1142,0.19727 0.1142,0.51912 0,0.67485 -0.42567,1.13167 -0.42567,0.44643 -1.06937,0.71637 -0.6437,0.26994 -1.40161,0.38415 -0.74752,0.1142 -1.40161,0.1142 -0.86172,-0.0104 -1.64039,-0.21803 -0.77867,-0.20764 -1.38085,-0.66446 -0.59178,-0.45682 -0.94478,-1.19396 -0.353,-0.73714 -0.353,-1.80652 v -2.42945 q 0,-0.98631 0.22841,-1.67154 0.23879,-0.68523 0.61255,-1.14205 0.37377,-0.45682 0.84097,-0.706 0.4672,-0.25955 0.94478,-0.38414 0.47759,-0.12459 0.90326,-0.15573 0.43606,-0.0311 0.74753,-0.0311 1.0486,0 1.78575,0.18688 0.74752,0.18688 1.24587,0.48797 0.49835,0.30108 0.78905,0.69561 0.2907,0.39452 0.43605,0.8202 0.14536,0.41529 0.18689,0.85134 0.0415,0.42568 0.0415,0.79944 z m -5.60642,-0.24918 h 2.59557 q 0,-0.48796 -0.0311,-0.86172 -0.0208,-0.38415 -0.15573,-0.64371 -0.12459,-0.25955 -0.40491,-0.39452 -0.26994,-0.13497 -0.77867,-0.13497 -0.42568,0 -0.67485,0.13497 -0.23879,0.13497 -0.36338,0.34261 -0.12459,0.19727 -0.15573,0.42568 -0.0311,0.22841 -0.0311,0.4049 z"
           inkscape:connector-curvature="0" />
        <path
           id="path46"
           style="font-style:normal;font-variant:normal;font-weight:normal;font-stretch:normal;font-family:'Concert One';-inkscape-font-specification:'Concert One';fill:#000000;fill-opacity:1;stroke-width:0.53157216"
           d="m 144.17091,143.42285 q -0.22841,0.60217 -0.42567,0.9344 -0.19727,0.32185 -0.38415,0.47759 -0.18688,0.15573 -0.37376,0.18688 -0.18688,0.0208 -0.39452,0.0208 -0.22841,0 -0.42568,-0.0208 -0.19726,-0.0311 -0.39452,-0.1765 -0.19727,-0.15574 -0.40491,-0.47759 -0.20765,-0.33223 -0.43606,-0.94478 l -2.34639,-6.14631 q -0.0934,-0.24917 -0.1765,-0.52949 -0.0727,-0.2907 -0.0727,-0.57103 0,-0.30108 0.0727,-0.57102 0.0831,-0.28032 0.25956,-0.48797 0.1765,-0.20764 0.45682,-0.33223 0.28032,-0.12459 0.68523,-0.12459 0.2907,0 0.52949,0.12459 0.24918,0.12459 0.43606,0.33223 0.19726,0.20765 0.34261,0.47759 0.14536,0.26994 0.22841,0.56064 l 1.16282,3.77914 h 0.16611 l 1.07976,-3.77914 q 0.0727,-0.25956 0.20765,-0.5295 0.13496,-0.26994 0.32185,-0.47758 0.19726,-0.21803 0.45682,-0.353 0.26993,-0.13497 0.61255,-0.13497 0.37376,0 0.63332,0.13497 0.25955,0.12459 0.42567,0.34262 0.16612,0.20764 0.23879,0.48796 0.0727,0.28032 0.0727,0.57103 0,0.26994 -0.0727,0.53988 -0.0623,0.26994 -0.1765,0.53987 z"
           inkscape:connector-curvature="0" />
        <path
           id="path48"
           style="font-style:normal;font-variant:normal;font-weight:normal;font-stretch:normal;font-family:'Concert One';-inkscape-font-specification:'Concert One';fill:#000000;fill-opacity:1;stroke-width:0.53157216"
           d="m 150.35875,144.27419 q -0.0831,0.1765 -0.18688,0.36338 -0.0934,0.1765 -0.2388,0.33223 -0.13497,0.14536 -0.32185,0.2388 -0.17649,0.10382 -0.41529,0.10382 -0.25955,0 -0.5814,-0.14535 -0.42568,-0.18688 -0.61256,-0.41529 -0.18688,-0.22841 -0.21803,-0.47759 0,-0.30108 0.0623,-0.51911 0.0727,-0.21803 0.16611,-0.45682 l 5.06655,-11.85655 q 0.0727,-0.16612 0.15574,-0.34261 0.083,-0.1765 0.19726,-0.31147 0.1142,-0.14535 0.25956,-0.2388 0.15573,-0.10382 0.36337,-0.12458 0.21803,0 0.39453,0.0311 0.18688,0.0311 0.39453,0.11421 0.40491,0.1765 0.5814,0.40491 0.1765,0.21803 0.20765,0.4672 0,0.31147 -0.0727,0.55026 -0.0623,0.23879 -0.15573,0.44644 z"
           inkscape:connector-curvature="0" />
        <path
           id="path50"
           style="font-style:normal;font-variant:normal;font-weight:normal;font-stretch:normal;font-family:'Concert One';-inkscape-font-specification:'Concert One';fill:#000000;fill-opacity:1;stroke-width:0.53157216"
           d="m 160.55413,143.11138 q -0.24917,0.24917 -0.51911,0.43605 -0.25956,0.18688 -0.56064,0.18688 -0.20765,0 -0.41529,-0.0934 -0.19727,-0.10382 -0.43606,-0.34261 -0.26994,-0.26994 -0.37376,-0.48797 -0.10382,-0.21802 -0.10382,-0.42567 0,-0.30109 0.18688,-0.55026 0.18688,-0.25956 0.43605,-0.50873 l 2.53328,-2.49175 -2.55404,-2.53327 q -0.23879,-0.23879 -0.42567,-0.49835 -0.1765,-0.26994 -0.1765,-0.5814 0,-0.20765 0.0934,-0.40491 0.10382,-0.20765 0.34261,-0.44644 0.24918,-0.24918 0.4672,-0.36338 0.21803,-0.1142 0.42568,-0.1142 0.31147,0 0.56064,0.19726 0.25956,0.18688 0.49835,0.42567 l 3.26003,3.23927 q 0.26994,0.26994 0.45682,0.51911 0.18688,0.23879 0.18688,0.53988 0,0.16612 -0.0623,0.31147 -0.0519,0.14535 -0.14535,0.28032 -0.0934,0.13497 -0.20765,0.24917 -0.10382,0.11421 -0.20764,0.21803 z"
           inkscape:connector-curvature="0" />
      </g>
      <g
         transform="translate(66.046065,3.036809)"
         id="g193">
        <path
           inkscape:connector-curvature="0"
           id="path927"
           d="M 38.949531,70.974409 A 25.169062,25.169062 0 0 0 13.780309,96.143629 25.169062,25.169062 0 0 0 38.949531,121.31256 25.169062,25.169062 0 0 0 64.118474,96.143629 25.169062,25.169062 0 0 0 38.949531,70.974409 Z m -9.039485,12.14824 c 0.503494,9e-5 1.165691,0.002 2.042215,0.005 l 3.576571,0.01 0.192989,0.0989 c 0.788082,0.38875 0.967519,1.42185 0.353436,2.03594 -0.387562,0.38775 -0.225831,0.36995 -3.417285,0.38578 l -2.787018,0.01 v 8.26411 8.264411 l 2.849653,0.01 2.84991,0.01 0.222764,0.12364 c 0.409521,0.22653 0.645638,0.63209 0.645638,1.10838 0,0.47679 -0.236117,0.88136 -0.645638,1.10848 l -0.222764,0.12365 -3.632679,0.008 c -3.126703,0.007 -3.656904,-0.001 -3.806992,-0.0593 -0.23869,-0.089 -0.537323,-0.35808 -0.673039,-0.61626 l -0.113064,-0.21366 v -9.875001 -9.87519 l 0.117614,-0.23938 c 0.141255,-0.28785 0.380735,-0.50251 0.686986,-0.61725 0.166579,-0.0593 0.250164,-0.0791 1.760801,-0.0791 z m 14.995255,0 c 1.510588,-4e-4 1.594274,0.0198 1.760782,0.0791 0.30625,0.11474 0.546028,0.33039 0.687283,0.61725 l 0.117317,0.23938 v 9.875 9.874991 l -0.112766,0.21367 c -0.06232,0.11771 -0.199518,0.28983 -0.305262,0.38281 -0.358677,0.31555 -0.154114,0.30071 -4.130356,0.29873 -2.794961,-0.002 -3.584386,-0.01 -3.703237,-0.0593 -0.2286,-0.0791 -0.444439,-0.22751 -0.558293,-0.37688 -0.49281,-0.64593 -0.328507,-1.5358 0.354522,-1.92059 l 0.229589,-0.12958 2.849919,-0.01 2.849644,-0.01 v -8.263821 -8.26441 l -2.787009,-0.01 c -3.191434,-0.0198 -3.029733,0.003 -3.417304,-0.38578 -0.614182,-0.61428 -0.434646,-1.64768 0.353434,-2.03593 l 0.193286,-0.0989 3.576287,-0.01 c 0.876514,-0.003 1.538691,-0.005 2.042223,-0.005 z m 4.353109,1.37308 h 2.219911 c 2.488791,0 2.452042,-0.004 2.793805,0.29675 0.104753,0.089 0.239578,0.27104 0.304963,0.40359 l 0.11702,0.23839 v 6.47211 6.47222 l -0.109403,0.23344 c -0.133243,0.2839 -0.361447,0.51932 -0.617546,0.63803 -0.186856,0.089 -0.246405,0.089 -2.404689,0.0989 -1.955444,0.008 -2.236589,6e-4 -2.416313,-0.0593 -0.277762,-0.089 -0.615765,-0.40952 -0.736841,-0.68946 -0.127011,-0.29279 -0.131759,-0.72507 -0.01088,-0.99759 0.121372,-0.274 0.3566,-0.51635 0.631197,-0.65088 l 0.236316,-0.11672 1.45104,-0.01 1.45103,-0.01 v -4.90318 -4.90347 h -1.419179 c -1.291336,0 -1.438052,-0.007 -1.627321,-0.0791 -0.320001,-0.12167 -0.523871,-0.30764 -0.675611,-0.61527 -0.317034,-0.64396 -0.07815,-1.36537 0.556314,-1.6825 z m -17.550172,5.26106 h 1.253234 1.253213 l -0.01088,1.22154 -0.01088,1.22114 -1.213814,0.01 c -0.667599,0.006 -1.226516,-0.002 -1.242165,-0.0198 -0.01583,-0.0198 -0.02869,-0.57076 -0.02869,-1.23252 z m 0.02077,5.49104 h 1.231976 1.231669 l 0.01088,1.12767 0.01088,1.12766 -0.782244,1.36715 -0.782443,1.367151 h -0.471048 c -0.269651,0 -0.470751,-0.0198 -0.470751,-0.0396 0,-0.0198 0.253725,-0.563831 0.563734,-1.205321 0.31001,-0.64099 0.563735,-1.17692 0.563735,-1.19087 0,-0.01 -0.249175,-0.0297 -0.553447,-0.0396 l -0.553249,-0.01 v -1.2525 z m -7.407078,11.210691 14.392745,0.01 14.393012,0.01 0.2103,0.11079 c 0.256495,0.13552 0.538609,0.43326 0.659191,0.69539 0.125626,0.27401 0.125626,0.78443 0,1.05853 -0.126616,0.27598 -0.400421,0.55592 -0.675611,0.69144 l -0.235821,0.11573 -14.363534,0.009 c -13.717085,0.009 -14.373496,0.006 -14.580077,-0.0692 -0.438306,-0.15134 -0.794312,-0.56878 -0.893527,-1.04635 -0.125428,-0.6034 0.262331,-1.2799 0.863555,-1.50484 z"
           style="opacity:1;fill:#000000;fill-opacity:1;stroke:none;stroke-width:0.57191384;stroke-miterlimit:4;stroke-dasharray:none;stroke-opacity:1" />
        <path
           sodipodi:nodetypes="ccccc"
           inkscape:connector-curvature="0"
           id="rect948"
           d="m 50.9243,114.54854 6.893535,-9.2802 5.983399,11.21058 v 0 z"
           style="opacity:1;fill:#000000;fill-opacity:1;stroke:none;stroke-width:0.46532807;stroke-miterlimit:4;stroke-dasharray:none;stroke-opacity:1" />
      </g>
    </g>
    <g
       id="g878"
       transform="matrix(0.26458333,0,0,0.26458333,-650.13914,146.21382)" />
    <g
       id="g880"
       transform="matrix(0.26458333,0,0,0.26458333,-650.13914,146.21382)" />
    <g
       id="g882"
       transform="matrix(0.26458333,0,0,0.26458333,-650.13914,146.21382)" />
    <g
       id="g884"
       transform="matrix(0.26458333,0,0,0.26458333,-650.13914,146.21382)" />
    <g
       id="g886"
       transform="matrix(0.26458333,0,0,0.26458333,-650.13914,146.21382)" />
    <g
       id="g888"
       transform="matrix(0.26458333,0,0,0.26458333,-650.13914,146.21382)" />
    <g
       id="g890"
       transform="matrix(0.26458333,0,0,0.26458333,-650.13914,146.21382)" />
    <g
       id="g892"
       transform="matrix(0.26458333,0,0,0.26458333,-650.13914,146.21382)" />
    <g
       id="g894"
       transform="matrix(0.26458333,0,0,0.26458333,-650.13914,146.21382)" />
    <g
       id="g896"
       transform="matrix(0.26458333,0,0,0.26458333,-650.13914,146.21382)" />
    <g
       id="g898"
       transform="matrix(0.26458333,0,0,0.26458333,-650.13914,146.21382)" />
    <g
       id="g900"
       transform="matrix(0.26458333,0,0,0.26458333,-650.13914,146.21382)" />
    <g
       id="g902"
       transform="matrix(0.26458333,0,0,0.26458333,-650.13914,146.21382)" />
    <g
       id="g904"
       transform="matrix(0.26458333,0,0,0.26458333,-650.13914,146.21382)" />
    <g
       id="g906"
       transform="matrix(0.26458333,0,0,0.26458333,-650.13914,146.21382)" />
  </g>
</svg>
